<svg width="28" height="28" viewBox="0 0 28 28" fill="none" xmlns="http://www.w3.org/2000/svg">
<g id="Apple logo (traced)" clip-path="url(#clip0_1416_4355)">
<g id="Black">
<path id="Vector" d="M17.3258 0.56875C15.4445 1.50938 14.2195 3.28125 13.8914 5.5125L13.7383 6.5625H14.5258C16.9102 6.5625 19.3383 4.00312 19.6227 1.18125L19.7539 0H19.0977C18.7477 0 17.9602 0.2625 17.3258 0.56875Z" fill="#191919"/>
<path id="Vector_2" d="M17.2812 7.00003C16.4937 7.24066 15.4437 7.52503 14.9624 7.67816C14.153 7.91878 13.8687 7.89691 12.2937 7.37191C10.1718 6.67191 8.74991 6.62816 7.15304 7.21878C2.97491 8.79378 1.35616 14.3938 3.39054 20.3657C4.33116 23.1438 6.32179 26.1844 7.91866 27.3438C9.03429 28.1532 10.2812 28.2188 12.1624 27.5407C13.803 26.9719 15.2905 26.9719 16.9312 27.5407C18.878 28.2407 20.103 28.1532 21.2624 27.2782C22.3343 26.4469 23.7562 24.5438 24.6749 22.6407C25.6593 20.65 25.6812 20.4532 25.0687 20.1688C23.1437 19.2938 21.8749 17.15 21.8749 14.7657C21.8749 12.8625 22.3343 11.7907 23.6905 10.5438C24.2593 10.0407 24.7187 9.53753 24.7187 9.42816C24.7187 9.31878 24.2593 8.83753 23.7124 8.33441C22.0062 6.84691 19.5999 6.34378 17.2812 7.00003Z" fill="#191919"/>
</g>
</g>
<defs>
<clipPath id="clip0_1416_4355">
<rect width="28" height="28" fill="white"/>
</clipPath>
</defs>
</svg>
