<svg width="28" height="28" viewBox="0 0 28 28" fill="none" xmlns="http://www.w3.org/2000/svg">
<g id="Search (traced)" clip-path="url(#clip0_1416_2611)">
<g id="Yellow">
<path id="Vector" d="M0.91875 8.68432C0.284375 10.2374 0 11.8124 0 13.9999C0 16.2531 0.284375 17.7843 1.00625 19.4249C1.59688 20.7812 1.26875 20.8906 4.33125 18.3968C6.19063 16.8874 6.3 16.7562 6.10313 16.2312C5.84063 15.5531 5.775 13.0593 5.99375 12.1187C6.14688 11.4406 6.08125 11.3531 3.87188 9.53745C2.60313 8.50932 1.53125 7.6562 1.46563 7.6562C1.42188 7.6562 1.15938 8.11557 0.91875 8.68432Z" fill="#FFD60A"/>
</g>
<g id="Red">
<path id="Vector_2" d="M10.4344 0.349951C8.24687 0.87495 5.75312 2.3187 4.04688 4.04683C3.21562 4.89995 2.29688 6.01558 2.0125 6.49683L1.53125 7.3937L3.87188 9.34058L6.2125 11.3093L6.71562 10.2812C8.61875 6.45308 13.4312 4.79058 17.4125 6.54058C17.9812 6.80308 18.4625 6.99995 18.4844 6.99995C18.6156 6.99995 22.8594 3.4562 22.925 3.30308C23.1219 2.77808 19.6219 0.896826 17.4781 0.349951C15.7281 -0.0875492 12.2063 -0.0875492 10.4344 0.349951Z" fill="#D7263D"/>
</g>
<g id="Lime">
<path id="Vector_3" d="M3.89439 18.9657C2.77876 19.8844 1.81626 20.6719 1.77251 20.7157C1.53189 20.8907 2.66939 22.5094 4.09126 23.9313C5.84126 25.7032 8.20376 27.0594 10.61 27.6719C12.2725 28.0875 15.4663 28.0875 17.2819 27.65C18.7256 27.3219 21.3725 26.1407 22.2694 25.4188L22.7725 25.025L20.6506 23.2969C17.9381 21.0875 18.0694 21.1313 17.3038 21.525C15.5319 22.4657 12.6006 22.3782 10.4131 21.35C9.16626 20.7813 7.17564 18.9 6.78189 17.9157C6.62876 17.5657 6.38814 17.2813 6.23501 17.2813C6.08189 17.2813 5.03189 18.025 3.89439 18.9657Z" fill="#2BA24C"/>
</g>
<g id="Cyan">
<path id="Vector_4" d="M14.2188 14.2188V17.0625H17.9594H21.6781L21.1969 17.9375C20.7156 18.7688 19.425 20.1907 18.55 20.825C18.2 21.0875 18.4187 21.3063 20.5187 23.0125L22.8594 24.8938L23.45 24.4563C24.3469 23.8219 25.9656 21.6344 26.6875 20.0813C27.7156 17.8938 28.0219 16.2969 27.9563 13.7375L27.8906 11.4844L21.0656 11.4188L14.2188 11.375V14.2188Z" fill="#3886E9"/>
</g>
</g>
<defs>
<clipPath id="clip0_1416_2611">
<rect width="28" height="28" fill="white"/>
</clipPath>
</defs>
</svg>
