<svg width="18" height="20" viewBox="0 0 18 20" fill="none" xmlns="http://www.w3.org/2000/svg">
<g id="Icon">
<path d="M14.6569 13.935C13.7176 14.859 11.7505 16.7942 10.4024 18.1204C9.62407 18.8861 8.37643 18.8866 7.59812 18.1209C6.27347 16.8178 4.34448 14.9201 3.34315 13.935C0.218951 10.8616 0.218951 5.87854 3.34315 2.80509C6.46734 -0.268362 11.5327 -0.268362 14.6569 2.80509C17.7811 5.87854 17.7811 10.8616 14.6569 13.935Z" stroke="#666666" stroke-linecap="round" stroke-linejoin="round"/>
<path d="M12 8.37006C12 10 10.6569 11.3213 9 11.3213C7.34315 11.3213 6 10 6 8.37006C6 6.74012 7.34315 5.41879 9 5.41879C10.6569 5.41879 12 6.74012 12 8.37006Z" stroke="#666666" stroke-linecap="round" stroke-linejoin="round"/>
</g>
</svg>
